<svg width="24" height="24" viewBox="0 0 24 24" fill="none" xmlns="http://www.w3.org/2000/svg">
   <g opacity="0.8">
   <path d="M13.414 20.9002L17.657 16.6572C18.7758 15.5384 19.5377 14.1129 19.8463 12.5611C20.155 11.0092 19.9965 9.40071 19.391 7.93893C18.7855 6.47714 17.7601 5.22774 16.4445 4.3487C15.1289 3.46967 13.5822 3.00049 12 3.00049C10.4178 3.00049 8.87107 3.46967 7.55548 4.3487C6.2399 5.22774 5.21452 6.47714 4.60901 7.93893C4.00349 9.40071 3.84504 11.0092 4.15369 12.5611C4.46234 14.1129 5.22422 15.5384 6.343 16.6572L10.587 20.9002C10.7726 21.0859 10.9929 21.2333 11.2354 21.3338C11.478 21.4344 11.738 21.4861 12.0005 21.4861C12.2631 21.4861 12.523 21.4344 12.7656 21.3338C13.0081 21.2333 13.2284 21.0859 13.414 20.9002Z" stroke="white" stroke-width="2" stroke-linecap="round" stroke-linejoin="round"/>
   <path d="M14.1213 13.1213C14.6839 12.5587 15 11.7956 15 11C15 10.2044 14.6839 9.44129 14.1213 8.87868C13.5587 8.31607 12.7956 8 12 8C11.2044 8 10.4413 8.31607 9.87868 8.87868C9.31607 9.44129 9 10.2044 9 11C9 11.7956 9.31607 12.5587 9.87868 13.1213C10.4413 13.6839 11.2044 14 12 14C12.7956 14 13.5587 13.6839 14.1213 13.1213Z" stroke="white" stroke-width="2" stroke-linecap="round" stroke-linejoin="round"/>
   </g>
   </svg>
   