<svg width="16" height="17" viewBox="0 0 16 17" fill="none" xmlns="http://www.w3.org/2000/svg">
   <path d="M7.99301 1.8335C4.31301 1.8335 1.33301 4.82016 1.33301 8.50016C1.33301 12.1802 4.31301 15.1668 7.99301 15.1668C11.6797 15.1668 14.6663 12.1802 14.6663 8.50016C14.6663 4.82016 11.6797 1.8335 7.99301 1.8335ZM10.6663 11.1668C10.6047 11.2286 10.5314 11.2777 10.4508 11.3111C10.3701 11.3446 10.2837 11.3618 10.1963 11.3618C10.109 11.3618 10.0226 11.3446 9.94192 11.3111C9.86128 11.2777 9.78802 11.2286 9.72634 11.1668L7.53301 8.9735C7.47002 8.91175 7.4199 8.83812 7.38557 8.75687C7.35124 8.67562 7.33337 8.58837 7.33301 8.50016V5.8335C7.33301 5.46683 7.63301 5.16683 7.99967 5.16683C8.36634 5.16683 8.66634 5.46683 8.66634 5.8335V8.22683L10.6663 10.2268C10.9263 10.4868 10.9263 10.9068 10.6663 11.1668Z" fill="white"/>
   </svg>
   